<svg width="512" height="78" viewBox="0 0 512 78" fill="none" xmlns="http://www.w3.org/2000/svg">
<path d="M498.151 23.5829C502.033 23.5829 505.072 24.7006 507.268 26.9359C509.504 29.1712 510.621 32.4654 510.621 36.8184V54.7597H506.445V37.2301C506.445 34.0144 505.661 31.5634 504.092 29.8771C502.562 28.1908 500.386 27.3477 497.562 27.3477C494.347 27.3477 491.817 28.3477 489.974 30.3477C488.131 32.3085 487.209 35.034 487.209 38.5243V54.7597H483.033V37.2301C483.033 34.0144 482.249 31.5634 480.68 29.8771C479.15 28.1908 476.954 27.3477 474.092 27.3477C470.915 27.3477 468.386 28.3477 466.503 30.3477C464.66 32.3085 463.739 35.034 463.739 38.5243V54.7597H459.562V23.8182H463.562V29.4654C464.66 27.583 466.19 26.132 468.15 25.1124C470.111 24.0928 472.366 23.5829 474.915 23.5829C477.503 23.5829 479.739 24.132 481.621 25.23C483.543 26.3281 484.974 27.9555 485.915 30.1124C487.053 28.0732 488.68 26.4849 490.798 25.3477C492.955 24.1712 495.406 23.5829 498.151 23.5829Z" fill="white"/>
<path fill-rule="evenodd" clip-rule="evenodd" d="M512 56.1384H505.066V37.2302C505.066 34.2241 504.334 32.1613 503.082 30.8162L503.077 30.8098L503.071 30.8034C501.863 29.4721 500.098 28.7264 497.562 28.7264C494.655 28.7264 492.522 29.617 490.988 31.2821L490.983 31.2871L490.979 31.292C489.441 32.9282 488.588 35.2773 488.588 38.5243V56.1384H481.654V37.2302C481.654 34.2241 480.922 32.1613 479.67 30.8162L479.665 30.8098L479.659 30.8034C478.455 29.4761 476.673 28.7264 474.092 28.7264C471.23 28.7264 469.088 29.6135 467.507 31.2926C465.97 32.9288 465.117 35.2777 465.117 38.5243V56.1384H458.183V22.4396H464.941V25.6396C465.71 24.9647 466.569 24.3808 467.514 23.8892C469.7 22.7528 472.179 22.2043 474.915 22.2043C477.699 22.2043 480.182 22.7958 482.31 24.036C483.825 24.9025 485.068 26.0583 486.038 27.4836C487.15 26.1235 488.521 25.0059 490.142 24.1351C492.523 22.8372 495.204 22.2043 498.151 22.2043C502.307 22.2043 505.733 23.409 508.247 25.9652C510.823 28.5438 512 32.243 512 36.8184V56.1384ZM507.268 26.9359C505.072 24.7006 502.033 23.583 498.151 23.583C495.406 23.583 492.955 24.1712 490.798 25.3477C489.176 26.2187 487.842 27.3542 486.795 28.7542C486.475 29.1822 486.182 29.635 485.915 30.1124C485.694 29.605 485.445 29.1268 485.17 28.6779C484.273 27.219 483.091 26.0697 481.621 25.23C479.739 24.132 477.503 23.583 474.915 23.583C472.366 23.583 470.111 24.0928 468.15 25.1124C466.907 25.7589 465.837 26.5789 464.941 27.5723C464.423 28.1455 463.964 28.7766 463.562 29.4654V23.8183H459.562V54.7597H463.739V38.5243C463.739 35.0341 464.66 32.3085 466.503 30.3477C468.386 28.3477 470.915 27.3477 474.092 27.3477C476.954 27.3477 479.151 28.1909 480.68 29.8772C482.249 31.5634 483.033 34.0144 483.033 37.2302V54.7597H487.209V38.5243C487.209 35.0341 488.131 32.3085 489.974 30.3477C491.817 28.3477 494.347 27.3477 497.562 27.3477C500.386 27.3477 502.562 28.1909 504.092 29.8772C505.661 31.5634 506.445 34.0144 506.445 37.2302V54.7597H510.621V36.8184C510.621 32.4654 509.504 29.1713 507.268 26.9359Z" fill="white"/>
<path d="M447.931 23.8182V54.7597H443.931V48.642C442.676 50.7205 441.009 52.3087 438.93 53.4067C436.891 54.5048 434.577 55.0538 431.989 55.0538C429.087 55.0538 426.46 54.3872 424.107 53.0538C421.754 51.7205 419.911 49.8577 418.577 47.4655C417.244 45.0733 416.577 42.3478 416.577 39.289C416.577 36.2301 417.244 33.5046 418.577 31.1124C419.911 28.7202 421.754 26.8771 424.107 25.583C426.46 24.2496 429.087 23.5829 431.989 23.5829C434.499 23.5829 436.754 24.1124 438.754 25.1712C440.793 26.1908 442.46 27.7006 443.754 29.7007V23.8182H447.931ZM432.342 51.3479C434.499 51.3479 436.44 50.8577 438.166 49.8773C439.93 48.8577 441.303 47.4263 442.283 45.5831C443.303 43.74 443.813 41.6419 443.813 39.289C443.813 36.936 443.303 34.838 442.283 32.9948C441.303 31.1516 439.93 29.7399 438.166 28.7595C436.44 27.7398 434.499 27.23 432.342 27.23C430.146 27.23 428.166 27.7398 426.401 28.7595C424.675 29.7399 423.303 31.1516 422.283 32.9948C421.303 34.838 420.813 36.936 420.813 39.289C420.813 41.6419 421.303 43.74 422.283 45.5831C423.303 47.4263 424.675 48.8577 426.401 49.8773C428.166 50.8577 430.146 51.3479 432.342 51.3479Z" fill="white"/>
<path fill-rule="evenodd" clip-rule="evenodd" d="M449.309 22.4396V56.1384H442.552V52.5204C441.665 53.3426 440.674 54.0446 439.579 54.6233C437.318 55.84 434.776 56.4325 431.989 56.4325C428.867 56.4325 426.002 55.7127 423.427 54.2533C420.851 52.7937 418.828 50.7469 417.373 48.1368C415.912 45.5162 415.199 42.5548 415.199 39.289C415.199 36.0232 415.912 33.0618 417.373 30.4412C418.828 27.8303 420.854 25.8004 423.435 24.3792C426.008 22.9227 428.87 22.2043 431.989 22.2043C434.693 22.2043 437.169 22.7752 439.385 23.9453C440.48 24.4943 441.477 25.1709 442.375 25.9713V22.4396H449.309ZM443.754 29.7007C443.334 29.0512 442.874 28.4534 442.375 27.9072C441.338 26.7717 440.131 25.8597 438.754 25.1712C436.754 24.1124 434.499 23.583 431.989 23.583C429.087 23.583 426.46 24.2496 424.107 25.583C421.754 26.8771 419.911 28.7203 418.577 31.1125C417.244 33.5046 416.577 36.2302 416.577 39.289C416.577 42.3479 417.244 45.0734 418.577 47.4655C419.911 49.8577 421.754 51.7205 424.107 53.0538C426.46 54.3872 429.087 55.0539 431.989 55.0539C434.577 55.0539 436.891 54.5048 438.93 53.4068C440.322 52.6715 441.529 51.7165 442.552 50.5416C443.056 49.9619 443.516 49.3287 443.93 48.642V54.7597H447.931V23.8183H443.754V29.7007ZM441.072 44.9257L441.077 44.9158C441.971 43.3 442.434 41.4364 442.434 39.289C442.434 37.1416 441.971 35.278 441.077 33.6622L441.072 33.6523L441.066 33.6423C440.206 32.0255 439.02 30.8113 437.496 29.9647L437.48 29.9558L437.464 29.9464C435.967 29.0619 434.272 28.6088 432.342 28.6088C430.369 28.6088 428.629 29.0641 427.091 29.9533L427.086 29.9557L427.082 29.9582C425.594 30.8037 424.399 32.022 423.495 33.6523C422.637 35.2696 422.191 37.1372 422.191 39.289C422.191 41.4408 422.637 43.3084 423.495 44.9258C424.398 46.5546 425.594 47.7954 427.087 48.681C428.625 49.532 430.366 49.9692 432.342 49.9692C434.28 49.9692 435.981 49.5318 437.48 48.6811C439.014 47.7941 440.205 46.5553 441.066 44.9357L441.072 44.9257ZM438.166 49.8773C436.44 50.8577 434.499 51.3479 432.342 51.3479C430.146 51.3479 428.166 50.8577 426.401 49.8773C424.675 48.8577 423.303 47.4263 422.283 45.5832C421.303 43.74 420.813 41.642 420.813 39.289C420.813 36.936 421.303 34.838 422.283 32.9948C423.303 31.1517 424.675 29.7399 426.401 28.7595C428.166 27.7399 430.146 27.2301 432.342 27.2301C434.499 27.2301 436.44 27.7399 438.166 28.7595C439.93 29.7399 441.303 31.1517 442.283 32.9948C443.303 34.838 443.813 36.936 443.813 39.289C443.813 41.642 443.303 43.74 442.283 45.5832C441.303 47.4263 439.93 48.8577 438.166 49.8773Z" fill="white"/>
<path d="M397.429 51.3479C399.351 51.3479 401.115 51.0146 402.723 50.3479C404.37 49.642 405.763 48.6224 406.9 47.289L409.253 49.995C407.88 51.642 406.174 52.8969 404.135 53.7597C402.096 54.6224 399.841 55.0538 397.37 55.0538C394.194 55.0538 391.37 54.3872 388.9 53.0538C386.429 51.6812 384.507 49.7989 383.135 47.4067C381.762 45.0145 381.076 42.3086 381.076 39.289C381.076 36.2693 381.723 33.5634 383.017 31.1713C384.351 28.7791 386.174 26.9163 388.488 25.583C390.802 24.2496 393.429 23.5829 396.37 23.5829C399.115 23.5829 401.586 24.2104 403.782 25.4653C406.017 26.7202 407.782 28.4653 409.076 30.7007C410.41 32.936 411.116 35.485 411.194 38.3478L385.782 43.289C386.566 45.7988 387.978 47.7792 390.017 49.2302C392.096 50.642 394.566 51.3479 397.429 51.3479ZM396.37 27.1712C394.213 27.1712 392.272 27.681 390.547 28.7006C388.86 29.681 387.527 31.0732 386.547 32.8772C385.605 34.6419 385.135 36.6811 385.135 38.9949C385.135 39.5831 385.155 40.0145 385.194 40.289L407.017 36.0536C406.547 33.4654 405.351 31.3477 403.429 29.7007C401.508 28.0144 399.155 27.1712 396.37 27.1712Z" fill="white"/>
<path fill-rule="evenodd" clip-rule="evenodd" d="M409.253 49.995C407.88 51.6421 406.174 52.897 404.135 53.7597C402.096 54.6225 399.841 55.0539 397.37 55.0539C394.194 55.0539 391.37 54.3872 388.9 53.0538C386.429 51.6813 384.507 49.7989 383.135 47.4067C381.762 45.0145 381.076 42.3086 381.076 39.289C381.076 36.2694 381.723 33.5635 383.017 31.1713C384.351 28.7791 386.174 26.9163 388.488 25.583C390.802 24.2496 393.429 23.583 396.37 23.583C399.115 23.583 401.586 24.2104 403.782 25.4653C406.017 26.7203 407.782 28.4654 409.076 30.7007C410.41 32.936 411.116 35.485 411.194 38.3478L385.782 43.289C385.924 43.743 386.086 44.1796 386.269 44.5988C387.097 46.4979 388.347 48.0417 390.017 49.2303C392.096 50.642 394.566 51.3479 397.429 51.3479C399.351 51.3479 401.115 51.0146 402.723 50.3479C403.933 49.8296 405.005 49.1421 405.939 48.2855C406.277 47.9755 406.598 47.6434 406.9 47.2891L409.253 49.995ZM402.188 49.0775C403.641 48.4534 404.856 47.5606 405.851 46.3944L406.89 45.1764L411.063 49.976L410.312 50.8776C408.794 52.6991 406.907 54.084 404.672 55.0294C402.444 55.972 400.004 56.4325 397.37 56.4325C393.996 56.4325 390.942 55.7226 388.245 54.2671L388.237 54.2631L388.23 54.259C385.546 52.7677 383.44 50.7083 381.939 48.0929C380.436 45.4724 379.697 42.5259 379.697 39.289C379.697 36.066 380.39 33.1304 381.805 30.5153L381.809 30.5076L381.813 30.5001C383.265 27.8958 385.264 25.8497 387.8 24.3885C390.343 22.9225 393.213 22.2043 396.37 22.2043C399.332 22.2043 402.041 22.8835 404.462 24.2657C406.909 25.6409 408.849 27.5599 410.265 30.0021C411.728 32.458 412.488 35.2389 412.572 38.3101L412.604 39.4781L387.66 44.3284C388.388 45.8732 389.435 47.1211 390.804 48.0982C392.621 49.3283 394.809 49.9692 397.429 49.9692C399.185 49.9692 400.766 49.6658 402.188 49.0775ZM391.244 29.8901L391.24 29.8926C389.785 30.7383 388.627 31.939 387.761 33.5307C386.991 34.9761 386.565 36.6643 386.518 38.6276L405.335 34.9759C404.801 33.2912 403.868 31.8922 402.532 30.7475L402.526 30.7422L402.52 30.7369C400.873 29.2917 398.852 28.5499 396.37 28.5499C394.441 28.5499 392.745 29.0031 391.248 29.8876L391.244 29.8901ZM406.696 34.7117C406.798 35.05 406.886 35.3976 406.959 35.7543C406.98 35.8534 406.999 35.9532 407.017 36.0537L385.194 40.289C385.155 40.0145 385.135 39.5831 385.135 38.9949C385.135 38.9619 385.135 38.9289 385.135 38.896C385.148 36.623 385.619 34.6167 386.547 32.8772C387.527 31.0732 388.86 29.6811 390.547 28.7007C392.272 27.6811 394.213 27.1712 396.37 27.1712C399.155 27.1712 401.508 28.0144 403.429 29.7007C405.008 31.0535 406.096 32.7239 406.696 34.7117Z" fill="white"/>
<path d="M365.331 29.8771C366.311 27.7987 367.762 26.23 369.684 25.1712C371.644 24.1124 374.056 23.5829 376.919 23.5829V27.6418L375.919 27.583C372.664 27.583 370.115 28.583 368.272 30.583C366.429 32.583 365.507 35.387 365.507 38.9949V54.7597H361.33V23.8182H365.331V29.8771Z" fill="white"/>
<path fill-rule="evenodd" clip-rule="evenodd" d="M375.54 27.5876C372.466 27.6628 370.043 28.6612 368.272 30.583C366.429 32.5831 365.507 35.387 365.507 38.9949V54.7597H361.33V23.8183H365.33V29.8772C365.717 29.0579 366.176 28.3178 366.709 27.657C367.528 26.6413 368.519 25.8127 369.683 25.1712C371.321 24.2869 373.273 23.7719 375.54 23.6261C375.987 23.5974 376.447 23.583 376.919 23.583V27.6418L375.919 27.583C375.792 27.583 375.665 27.5845 375.54 27.5876ZM375.879 28.9618C372.948 28.9697 370.81 29.8633 369.286 31.5174C367.745 33.1889 366.886 35.6176 366.886 38.9949V56.1384H359.952V22.4396H366.709V25.6348C367.397 24.991 368.166 24.433 369.018 23.9637L369.023 23.9609L369.028 23.9581C371.24 22.764 373.891 22.2043 376.919 22.2043H378.297V29.104L375.879 28.9618Z" fill="white"/>
<path d="M353.76 52.8773C352.976 53.5832 352.015 54.1322 350.878 54.5244C349.74 54.8773 348.544 55.0538 347.289 55.0538C344.387 55.0538 342.152 54.2695 340.583 52.7009C339.015 51.1322 338.231 48.9165 338.231 46.0537V17.0535H342.407V23.8182H351.76V27.3477H342.407V45.8184C342.407 47.6616 342.858 49.0734 343.76 50.0538C344.662 50.995 345.976 51.4655 347.701 51.4655C349.584 51.4655 351.113 50.9361 352.29 49.8773L353.76 52.8773Z" fill="white"/>
<path fill-rule="evenodd" clip-rule="evenodd" d="M355.456 53.2055L354.682 53.9021C353.743 54.7478 352.615 55.3838 351.327 55.8278L351.307 55.8348L351.286 55.8412C350.01 56.2373 348.675 56.4325 347.289 56.4325C344.139 56.4325 341.508 55.5755 339.609 53.6758C337.712 51.7794 336.852 49.1712 336.852 46.0538V15.6748H343.786V22.4396H353.139V28.7264H343.786V45.8185C343.786 47.4405 344.179 48.467 344.765 49.1099C345.331 49.6946 346.233 50.0869 347.701 50.0869C349.311 50.0869 350.49 49.6418 351.367 48.8526L352.724 47.6314L355.456 53.2055ZM343.76 50.0538C342.858 49.0734 342.407 47.6616 342.407 45.8185V27.3477H351.76V23.8183H342.407V17.0535H338.231V46.0538C338.231 48.9165 339.015 51.1322 340.584 52.7009C342.152 54.2695 344.387 55.0538 347.289 55.0538C348.544 55.0538 349.74 54.8774 350.878 54.5244C352.015 54.1323 352.976 53.5832 353.76 52.8774L352.29 49.8773C351.94 50.1918 351.56 50.4596 351.148 50.6806C350.173 51.2039 349.025 51.4656 347.701 51.4656C345.976 51.4656 344.662 50.995 343.76 50.0538Z" fill="white"/>
<path d="M314.569 55.1126C311.511 55.1126 308.569 54.6224 305.746 53.642C302.962 52.6616 300.805 51.3675 299.275 49.7596L300.981 46.4066C302.471 47.8968 304.452 49.1125 306.922 50.0537C309.393 50.9557 311.942 51.4067 314.569 51.4067C318.256 51.4067 321.021 50.74 322.864 49.4067C324.707 48.0341 325.628 46.2694 325.628 44.1125C325.628 42.4654 325.119 41.1517 324.099 40.1713C323.119 39.1909 321.903 38.4458 320.452 37.936C319.001 37.3869 316.981 36.7987 314.393 36.1712C311.295 35.3869 308.824 34.6418 306.981 33.9359C305.138 33.1908 303.55 32.0732 302.216 30.583C300.922 29.0927 300.275 27.0731 300.275 24.5241C300.275 22.4456 300.824 20.5633 301.922 18.877C303.02 17.1515 304.707 15.7789 306.981 14.7593C309.256 13.7397 312.079 13.2299 315.452 13.2299C317.805 13.2299 320.099 13.5632 322.334 14.2299C324.609 14.8573 326.57 15.7397 328.217 16.8769L326.746 20.3476C325.021 19.2103 323.177 18.3672 321.217 17.8181C319.256 17.2299 317.334 16.9358 315.452 16.9358C311.844 16.9358 309.118 17.6417 307.275 19.0534C305.471 20.426 304.569 22.2103 304.569 24.4064C304.569 26.0535 305.06 27.3869 306.04 28.4065C307.06 29.3869 308.315 30.1516 309.805 30.7006C311.334 31.2104 313.373 31.779 315.922 32.4065C318.942 33.1516 321.373 33.8967 323.217 34.6418C325.099 35.3477 326.687 36.4458 327.981 37.936C329.275 39.387 329.923 41.3674 329.923 43.8772C329.923 45.9557 329.354 47.8576 328.217 49.5831C327.119 51.2694 325.413 52.6224 323.099 53.642C320.785 54.6224 317.942 55.1126 314.569 55.1126Z" fill="white"/>
<path fill-rule="evenodd" clip-rule="evenodd" d="M305.294 54.9444L305.288 54.9425C302.363 53.9126 299.997 52.5189 298.276 50.7098L297.604 50.0034L300.613 44.0891L301.956 45.4318C303.277 46.7526 305.075 47.8735 307.404 48.762C309.721 49.6065 312.107 50.028 314.569 50.028C318.125 50.028 320.545 49.3788 322.048 48.2952C323.563 47.164 324.25 45.7987 324.25 44.1125C324.25 42.7734 323.848 41.8425 323.143 41.1651L323.134 41.1557L323.124 41.1462C322.305 40.3271 321.272 39.6856 319.995 39.2367L319.979 39.2313L319.964 39.2255C318.591 38.7059 316.634 38.1332 314.068 37.5112L314.061 37.5095L314.055 37.5078C310.932 36.7172 308.403 35.9568 306.488 35.2235L306.476 35.2189L306.464 35.2142C304.425 34.3896 302.662 33.1487 301.189 31.5023L301.182 31.4947L301.175 31.487C299.606 29.6801 298.896 27.3063 298.896 24.5241C298.896 22.1903 299.517 20.047 300.763 18.1307C302.035 16.1352 303.953 14.6057 306.417 13.5012C308.92 12.3793 311.95 11.8512 315.452 11.8512C317.932 11.8512 320.355 12.2022 322.715 12.9046C325.106 13.5658 327.209 14.5057 329 15.7425L329.924 16.3807L327.37 22.4098L325.987 21.4987C324.379 20.4388 322.666 19.6558 320.845 19.1458L320.833 19.1424L320.82 19.1387C318.977 18.5857 317.189 18.3145 315.452 18.3145C311.989 18.3145 309.615 18.9977 308.114 20.148L308.11 20.1507C306.636 21.2723 305.948 22.6569 305.948 24.4065C305.948 25.7484 306.334 26.7133 307.016 27.4321C307.875 28.2521 308.947 28.9128 310.261 29.3996C311.739 29.8911 313.731 30.4474 316.252 31.0678L316.253 31.068C319.296 31.819 321.792 32.5802 323.717 33.3572C325.8 34.1413 327.574 35.3662 329.016 37.0253C330.591 38.7945 331.301 41.1337 331.301 43.8772C331.301 46.2226 330.655 48.3877 329.37 50.339C328.092 52.2992 326.149 53.8044 323.655 54.9036L323.646 54.9076L323.637 54.9114C321.105 55.9841 318.067 56.4913 314.569 56.4913C311.36 56.4913 308.266 55.9765 305.294 54.9444ZM327.981 37.936C326.687 36.4458 325.099 35.3477 323.217 34.6418C321.373 33.8967 318.942 33.1516 315.922 32.4065C313.373 31.7791 311.334 31.2104 309.805 30.7006C308.314 30.1516 307.06 29.3869 306.04 28.4065C305.06 27.3869 304.569 26.0535 304.569 24.4065C304.569 22.2104 305.471 20.426 307.275 19.0535C309.118 17.6417 311.844 16.9358 315.452 16.9358C317.334 16.9358 319.256 17.2299 321.217 17.8182C322.734 18.243 324.18 18.8438 325.557 19.6208C325.959 19.848 326.356 20.0903 326.746 20.3476L328.217 16.877C326.57 15.7397 324.609 14.8574 322.334 14.2299C320.099 13.5632 317.805 13.2299 315.452 13.2299C312.079 13.2299 309.256 13.7397 306.981 14.7593C304.707 15.7789 303.02 17.1515 301.922 18.877C300.824 20.5633 300.275 22.4457 300.275 24.5241C300.275 27.0731 300.922 29.0928 302.216 30.583C303.55 32.0732 305.138 33.1909 306.981 33.936C308.824 34.6418 311.295 35.387 314.393 36.1713C316.981 36.7987 319.001 37.387 320.452 37.936C321.903 38.4458 323.119 39.1909 324.099 40.1713C325.119 41.1517 325.628 42.4654 325.628 44.1125C325.628 46.2694 324.707 48.0341 322.864 49.4067C321.02 50.74 318.256 51.4067 314.569 51.4067C311.942 51.4067 309.393 50.9557 306.922 50.0538C304.999 49.3212 303.373 48.4223 302.044 47.3572C301.666 47.0538 301.311 46.737 300.981 46.4067L299.275 49.7596C300.805 51.3675 302.961 52.6616 305.746 53.642C308.569 54.6224 311.511 55.1126 314.569 55.1126C317.942 55.1126 320.785 54.6224 323.099 53.642C325.413 52.6224 327.119 51.2695 328.217 49.5832C329.354 47.8577 329.923 45.9557 329.923 43.8772C329.923 41.3674 329.275 39.387 327.981 37.936Z" fill="white"/>
<path d="M291.728 23.8183V50.995C291.728 56.25 290.532 60.1324 288.14 62.6422C285.748 65.1912 282.14 66.4657 277.316 66.4657C274.61 66.4657 272.042 66.0344 269.61 65.1716C267.218 64.3481 265.277 63.1912 263.787 61.701L265.904 58.5245C267.238 59.8578 268.885 60.8971 270.846 61.6422C272.806 62.3873 274.905 62.7598 277.14 62.7598C280.709 62.7598 283.336 61.8383 285.022 59.9951C286.709 58.1912 287.552 55.3676 287.552 51.5244V47.9362C286.454 49.7401 284.944 51.1323 283.022 52.1127C281.14 53.0931 279.003 53.5833 276.61 53.5833C272.571 53.5833 269.375 52.4656 267.022 50.2303C264.708 47.9558 263.552 44.642 263.552 40.289V23.8183H267.728V39.8773C267.728 43.1322 268.532 45.6028 270.14 47.2891C271.748 48.9754 274.042 49.8185 277.022 49.8185C280.277 49.8185 282.846 48.8381 284.728 46.8773C286.611 44.8773 287.552 42.1126 287.552 38.5831V23.8183H291.728Z" fill="white"/>
<path fill-rule="evenodd" clip-rule="evenodd" d="M293.107 22.4395V50.9949C293.107 56.4231 291.876 60.718 289.142 63.5894C286.402 66.5061 282.369 67.8443 277.316 67.8443C274.463 67.8443 271.74 67.3893 269.156 66.473C266.607 65.5948 264.476 64.3395 262.812 62.6757L262.013 61.8765L265.69 56.3603L266.879 57.5495C268.06 58.7303 269.536 59.6695 271.335 60.3532C273.13 61.0351 275.061 61.381 277.14 61.381C280.491 61.381 282.676 60.5173 284.005 59.0643L284.01 59.0589L284.015 59.0535C285.343 57.6333 286.152 55.2664 286.173 51.6639C285.416 52.3087 284.576 52.8671 283.654 53.338C281.552 54.4314 279.194 54.9618 276.61 54.9618C272.309 54.9618 268.741 53.7645 266.073 51.2297L266.064 51.2216L266.056 51.2133C263.398 48.6005 262.173 44.881 262.173 40.2889V22.4395H269.107V39.8771C269.107 42.9196 269.857 44.9946 271.138 46.3375C272.417 47.6798 274.308 48.4397 277.022 48.4397C279.979 48.4397 282.157 47.5615 283.729 45.9274C285.305 44.2501 286.173 41.8618 286.173 38.583V22.4395H293.107ZM284.728 46.8772C282.846 48.838 280.277 49.8184 277.022 49.8184C274.042 49.8184 271.748 48.9752 270.14 47.2889C268.532 45.6027 267.728 43.132 267.728 39.8771V23.8181H263.552V40.2889C263.552 44.6419 264.708 47.9556 267.022 50.2301C269.375 52.4655 272.571 53.5831 276.61 53.5831C279.003 53.5831 281.14 53.0929 283.022 52.1125C284.237 51.4927 285.287 50.7083 286.173 49.7594C286.688 49.2073 287.148 48.5995 287.552 47.936V51.5243C287.552 55.3675 286.709 58.191 285.022 59.9949C283.336 61.8381 280.709 62.7597 277.14 62.7597C274.905 62.7597 272.807 62.3871 270.846 61.642C269.366 61.0797 268.065 60.3499 266.943 59.4527C266.578 59.1609 266.232 58.8515 265.905 58.5243L263.787 61.7008C265.277 63.1911 267.218 64.3479 269.61 65.1715C272.042 66.0342 274.61 66.4656 277.316 66.4656C282.14 66.4656 285.748 65.1911 288.14 62.642C290.532 60.1322 291.728 56.2498 291.728 50.9949V23.8181H287.552V38.583C287.552 42.1124 286.611 44.8772 284.728 46.8772Z" fill="white"/>
<path d="M254.131 14.3475C252.327 14.3475 250.954 14.8377 250.013 15.8181C249.111 16.7985 248.66 18.2495 248.66 20.1711V23.8182H258.19V27.3476H248.778V54.7596H244.601V19.9946C244.601 17.1711 245.405 14.9357 247.013 13.2887C248.66 11.6416 250.974 10.8181 253.954 10.8181C255.131 10.8181 256.268 10.9945 257.366 11.3475C258.464 11.6612 259.386 12.1318 260.131 12.7592L258.719 15.8769C257.504 14.8573 255.974 14.3475 254.131 14.3475Z" fill="white"/>
<path fill-rule="evenodd" clip-rule="evenodd" d="M257.556 15.1047C256.569 14.6 255.428 14.3476 254.131 14.3476C252.327 14.3476 250.954 14.8378 250.013 15.8182C249.111 16.7986 248.66 18.2496 248.66 20.1712V23.8183H258.19V27.3477H248.778V54.7597H244.601V19.9947C244.601 17.1711 245.405 14.9358 247.013 13.2888C248.66 11.6417 250.974 10.8181 253.954 10.8181C255.131 10.8181 256.268 10.9946 257.366 11.3476C258.464 11.6613 259.386 12.1319 260.131 12.7593L258.719 15.877C258.359 15.5748 257.971 15.3174 257.556 15.1047ZM257.767 10.0282C256.536 9.63508 255.264 9.43945 253.954 9.43945C250.716 9.43945 248.011 10.3412 246.038 12.3139L246.033 12.3197L246.027 12.3257C244.113 14.2861 243.223 16.8976 243.223 19.9947V56.1384H250.157V28.7264H259.569V22.4396H250.039V20.1712C250.039 18.4535 250.441 17.3965 251.018 16.7624C251.623 16.1389 252.583 15.7263 254.131 15.7263C255.705 15.7263 256.905 16.1549 257.833 16.9334L259.226 18.1011L261.818 12.3771L261.019 11.7048C260.107 10.9368 259.011 10.3864 257.767 10.0282Z" fill="white"/>
<path d="M220.804 23.5829C224.687 23.5829 227.726 24.7006 229.922 26.9359C232.157 29.1712 233.275 32.4654 233.275 36.8184V54.7597H229.099V37.2301C229.099 34.0144 228.314 31.5634 226.746 29.8771C225.216 28.1908 223.04 27.3477 220.216 27.3477C217 27.3477 214.471 28.3477 212.628 30.3477C210.785 32.3085 209.863 35.034 209.863 38.5243V54.7597H205.687V37.2301C205.687 34.0144 204.902 31.5634 203.334 29.8771C201.804 28.1908 199.608 27.3477 196.745 27.3477C193.569 27.3477 191.039 28.3477 189.157 30.3477C187.314 32.3085 186.392 35.034 186.392 38.5243V54.7597H182.216V23.8182H186.216V29.4654C187.314 27.583 188.843 26.132 190.804 25.1124C192.765 24.0928 195.02 23.5829 197.569 23.5829C200.157 23.5829 202.392 24.132 204.275 25.23C206.196 26.3281 207.628 27.9555 208.569 30.1124C209.706 28.0732 211.334 26.4849 213.451 25.3477C215.608 24.1712 218.059 23.5829 220.804 23.5829Z" fill="white"/>
<path fill-rule="evenodd" clip-rule="evenodd" d="M234.654 56.1384H227.72V37.2302C227.72 34.2241 226.987 32.1613 225.736 30.8162L225.73 30.8098L225.724 30.8034C224.517 29.4721 222.751 28.7264 220.216 28.7264C217.309 28.7264 215.176 29.617 213.642 31.2821L213.637 31.2871L213.632 31.292C212.094 32.9282 211.242 35.2773 211.242 38.5243V56.1384H204.308V37.2302C204.308 34.2241 203.575 32.1613 202.324 30.8162L202.318 30.8098L202.312 30.8034C201.109 29.4761 199.326 28.7264 196.745 28.7264C193.884 28.7264 191.741 29.6135 190.161 31.2926C188.623 32.9288 187.771 35.2777 187.771 38.5243V56.1384H180.837V22.4396H187.595V25.6396C188.364 24.9647 189.223 24.3808 190.168 23.8892C192.353 22.7528 194.833 22.2043 197.569 22.2043C200.353 22.2043 202.836 22.7958 204.964 24.036C206.479 24.9025 207.722 26.0583 208.692 27.4836C209.804 26.1235 211.175 25.0059 212.795 24.1351C215.177 22.8372 217.858 22.2043 220.804 22.2043C224.96 22.2043 228.387 23.409 230.901 25.9652C233.477 28.5438 234.654 32.243 234.654 36.8184V56.1384ZM229.922 26.9359C227.726 24.7006 224.687 23.583 220.804 23.583C218.059 23.583 215.608 24.1712 213.451 25.3477C211.83 26.2187 210.495 27.3542 209.448 28.7542C209.128 29.1822 208.835 29.635 208.569 30.1124C208.348 29.605 208.099 29.1268 207.823 28.6779C206.927 27.219 205.744 26.0697 204.275 25.23C202.392 24.132 200.157 23.583 197.569 23.583C195.02 23.583 192.765 24.0928 190.804 25.1124C189.561 25.7589 188.491 26.5789 187.595 27.5723C187.077 28.1455 186.618 28.7766 186.216 29.4654V23.8183H182.216V54.7597H186.392V38.5243C186.392 35.0341 187.314 32.3085 189.157 30.3477C191.039 28.3477 193.569 27.3477 196.745 27.3477C199.608 27.3477 201.804 28.1909 203.334 29.8772C204.902 31.5634 205.687 34.0144 205.687 37.2302V54.7597H209.863V38.5243C209.863 35.0341 210.785 32.3085 212.628 30.3477C214.471 28.3477 217 27.3477 220.216 27.3477C223.04 27.3477 225.216 28.1909 226.746 29.8772C228.314 31.5634 229.099 34.0144 229.099 37.2302V54.7597H233.275V36.8184C233.275 32.4654 232.157 29.1713 229.922 26.9359Z" fill="white"/>
<path d="M157.983 55.0538C155.003 55.0538 152.316 54.3872 149.924 53.0538C147.532 51.6812 145.65 49.7989 144.277 47.4067C142.904 45.0145 142.218 42.3086 142.218 39.289C142.218 36.2693 142.904 33.5634 144.277 31.1713C145.65 28.7791 147.532 26.9163 149.924 25.583C152.316 24.2496 155.003 23.5829 157.983 23.5829C160.963 23.5829 163.65 24.2496 166.042 25.583C168.434 26.9163 170.297 28.7791 171.63 31.1713C173.003 33.5634 173.689 36.2693 173.689 39.289C173.689 42.3086 173.003 45.0145 171.63 47.4067C170.297 49.7989 168.434 51.6812 166.042 53.0538C163.65 54.3872 160.963 55.0538 157.983 55.0538ZM157.983 51.3479C160.179 51.3479 162.14 50.8577 163.865 49.8773C165.63 48.8577 167.003 47.4263 167.983 45.5831C168.963 43.74 169.454 41.6419 169.454 39.289C169.454 36.936 168.963 34.838 167.983 32.9948C167.003 31.1516 165.63 29.7399 163.865 28.7595C162.14 27.7398 160.179 27.23 157.983 27.23C155.787 27.23 153.806 27.7398 152.042 28.7595C150.316 29.7399 148.944 31.1516 147.924 32.9948C146.944 34.838 146.453 36.936 146.453 39.289C146.453 41.6419 146.944 43.74 147.924 45.5831C148.944 47.4263 150.316 48.8577 152.042 49.8773C153.806 50.8577 155.787 51.3479 157.983 51.3479Z" fill="white"/>
<path fill-rule="evenodd" clip-rule="evenodd" d="M149.245 54.2539L149.238 54.2497C146.634 52.7554 144.575 50.6971 143.081 48.0929C141.578 45.4724 140.839 42.5259 140.839 39.289C140.839 36.0521 141.578 33.1056 143.081 30.4851L143.942 30.9793L143.081 30.4851C144.577 27.8775 146.64 25.8349 149.253 24.3787C151.868 22.9211 154.789 22.2043 157.983 22.2043C161.177 22.2043 164.098 22.9211 166.713 24.3787C169.327 25.8354 171.373 27.8803 172.83 30.4927C174.331 33.1113 175.068 36.0552 175.068 39.289C175.068 42.5228 174.331 45.4667 172.83 48.0852C171.375 50.6943 169.333 52.7548 166.728 54.2497L166.721 54.2539L166.713 54.2581C164.098 55.7158 161.177 56.4325 157.983 56.4325C154.789 56.4325 151.868 55.7158 149.253 54.2581L149.245 54.2539ZM171.63 47.4067C173.003 45.0145 173.689 42.3086 173.689 39.289C173.689 36.2694 173.003 33.5635 171.63 31.1713C170.297 28.7791 168.434 26.9163 166.042 25.583C163.65 24.2496 160.963 23.583 157.983 23.583C155.003 23.583 152.316 24.2496 149.924 25.583C147.532 26.9163 145.65 28.7791 144.277 31.1713C142.904 33.5635 142.218 36.2694 142.218 39.289C142.218 42.3086 142.904 45.0145 144.277 47.4067C145.65 49.7989 147.532 51.6813 149.924 53.0538C152.316 54.3872 155.003 55.0539 157.983 55.0539C160.963 55.0539 163.65 54.3872 166.042 53.0538C168.434 51.6813 170.297 49.7989 171.63 47.4067ZM163.18 29.9558L163.164 29.9464C161.671 29.0642 159.957 28.6088 157.983 28.6088C156.01 28.6088 154.27 29.0641 152.731 29.9533L152.727 29.9557L152.723 29.9582C151.235 30.8037 150.04 32.022 149.136 33.6523C148.278 35.2696 147.832 37.1372 147.832 39.289C147.832 41.4408 148.278 43.3084 149.136 44.9258C150.039 46.5546 151.235 47.7954 152.727 48.681C154.266 49.532 156.007 49.9692 157.983 49.9692C159.965 49.9692 161.685 49.5296 163.18 48.681C164.714 47.794 165.904 46.5553 166.766 44.9357C167.627 43.3161 168.075 41.4452 168.075 39.289C168.075 37.1328 167.627 35.2619 166.766 33.6423C165.906 32.0255 164.72 30.8113 163.196 29.9647L163.18 29.9558ZM163.865 49.8773C162.14 50.8577 160.179 51.3479 157.983 51.3479C155.787 51.3479 153.806 50.8577 152.042 49.8773C150.316 48.8577 148.944 47.4263 147.924 45.5832C146.944 43.74 146.453 41.642 146.453 39.289C146.453 36.936 146.944 34.838 147.924 32.9948C148.944 31.1517 150.316 29.7399 152.042 28.7595C153.806 27.7399 155.787 27.2301 157.983 27.2301C160.179 27.2301 162.14 27.7399 163.865 28.7595C165.63 29.7399 167.003 31.1517 167.983 32.9948C168.963 34.838 169.454 36.936 169.454 39.289C169.454 41.642 168.963 43.74 167.983 45.5832C167.003 47.4263 165.63 48.8577 163.865 49.8773Z" fill="white"/>
<path d="M123.2 55.1126C119.121 55.1126 115.435 54.2106 112.141 52.4067C108.886 50.6027 106.317 48.1125 104.435 44.936C102.592 41.7203 101.67 38.132 101.67 34.1712C101.67 30.2104 102.592 26.6417 104.435 23.4652C106.317 20.2495 108.905 17.7397 112.2 15.9358C115.494 14.1318 119.18 13.2299 123.258 13.2299C126.317 13.2299 129.141 13.7397 131.729 14.7593C134.317 15.7789 136.513 17.2691 138.317 19.2299L135.553 21.9946C132.337 18.7397 128.278 17.1122 123.376 17.1122C120.121 17.1122 117.16 17.8574 114.494 19.3476C111.827 20.8378 109.729 22.877 108.199 25.4653C106.709 28.0535 105.964 30.9555 105.964 34.1712C105.964 37.3869 106.709 40.2889 108.199 42.8772C109.729 45.4654 111.827 47.5047 114.494 48.9949C117.16 50.4851 120.121 51.2302 123.376 51.2302C128.317 51.2302 132.376 49.5831 135.553 46.289L138.317 49.0537C136.513 51.0145 134.298 52.5243 131.67 53.5832C129.082 54.6028 126.258 55.1126 123.2 55.1126Z" fill="white"/>
<path fill-rule="evenodd" clip-rule="evenodd" d="M111.475 53.6143L111.472 53.6126C108.005 51.6909 105.257 49.0278 103.249 45.6389L103.244 45.6303L103.239 45.6217C101.268 42.1829 100.291 38.3555 100.291 34.1713C100.291 29.9871 101.268 26.1765 103.242 22.7733L103.245 22.7688C105.255 19.3357 108.026 16.6495 111.537 14.7265C115.052 12.802 118.969 11.8512 123.258 11.8512C126.473 11.8512 129.47 12.3875 132.234 13.4766C135.008 14.5691 137.381 16.1754 139.332 18.2965L140.227 19.2697L135.547 23.9504L134.572 22.9636C131.635 19.9909 127.939 18.491 123.376 18.491C120.341 18.491 117.614 19.1833 115.166 20.5511C112.711 21.9231 110.793 23.7883 109.39 26.16C108.032 28.5213 107.343 31.1807 107.343 34.1713C107.343 37.1618 108.032 39.8212 109.39 42.1826C110.793 44.5542 112.711 46.4194 115.166 47.7914C117.614 49.1592 120.341 49.8515 123.376 49.8515C127.976 49.8515 131.666 48.3337 134.56 45.332L135.535 44.3214L140.227 49.014L139.332 49.9872C137.381 52.1082 134.991 53.7315 132.186 54.862L132.181 54.864L132.176 54.8659C129.411 55.955 126.414 56.4913 123.2 56.4913C118.91 56.4913 114.993 55.5405 111.478 53.616L111.475 53.6143ZM108.199 25.4653C109.729 22.877 111.827 20.8378 114.494 19.3476C117.16 17.8574 120.121 17.1123 123.376 17.1123C128.2 17.1123 132.208 18.6885 135.399 21.8409C135.45 21.8917 135.502 21.943 135.553 21.9947L138.317 19.2299C136.513 17.2691 134.317 15.7789 131.729 14.7593C129.141 13.7397 126.317 13.2299 123.258 13.2299C119.18 13.2299 115.494 14.1319 112.2 15.9358C108.905 17.7397 106.317 20.2496 104.435 23.4653C102.592 26.6418 101.67 30.2104 101.67 34.1713C101.67 38.1321 102.592 41.7203 104.435 44.9361C106.317 48.1126 108.886 50.6028 112.141 52.4067C115.435 54.2107 119.121 55.1126 123.2 55.1126C126.258 55.1126 129.082 54.6028 131.67 53.5832C134.298 52.5244 136.513 51.0145 138.317 49.0537L135.553 46.289C135.405 46.4422 135.255 46.5919 135.104 46.738C131.997 49.7328 128.087 51.2302 123.376 51.2302C120.121 51.2302 117.16 50.4851 114.494 48.9949C111.827 47.5047 109.729 45.4655 108.199 42.8772C106.709 40.289 105.964 37.387 105.964 34.1713C105.964 30.9555 106.709 28.0536 108.199 25.4653Z" fill="white"/>
<path d="M13.8754 1.35287L30.493 10.1592C30.841 10.3436 30.7915 10.8819 30.4208 11.0103C27.9251 11.8746 26.0384 13.032 24.4521 14.5413C22.4926 16.4057 21.79 19.2264 21.79 21.9849V64.1865C21.79 66.9047 20.3026 69.3871 17.9534 70.5901L5.1973 77.122C2.80293 78.348 0 76.5403 0 73.77V9.11245C0 7.44431 0.213494 5.73044 1.12056 4.35311C2.25793 2.62607 3.84885 1.41793 6.05454 0.531479C8.60353 -0.492946 11.441 0.0628039 13.8754 1.35287Z" fill="white"/>
<path d="M40.2401 13.8786L58.3865 23.2574C58.7382 23.4392 58.6915 23.9833 58.3199 24.1158C55.7548 25.0304 53.8277 26.3404 52.2104 27.9907C50.3749 29.8637 49.6592 32.5624 49.6099 35.233L49.3169 51.1165C49.2677 53.7843 47.789 56.2011 45.4831 57.3826L33.0937 63.7306C30.6992 64.9575 27.8956 63.1497 27.8956 60.379V22.5379C27.8956 20.8698 28.1158 19.1571 29.0452 17.7959C30.7567 15.2892 33.5573 13.6004 37.1731 13.2139C38.2325 13.1007 39.2867 13.3859 40.2401 13.8786Z" fill="white"/>
<path d="M58.7026 30.658C60.6419 28.9201 62.8927 27.8752 66.5192 27.7316C69.0419 27.9548 70.3503 28.1779 72.3213 29.2937C73.7664 30.1118 75.6007 31.5253 76.6097 33.7568C78.3755 37.3273 77.4724 41.1918 74.5916 44.4683C72.3019 47.0726 64.9907 49.9063 60.1317 51.5772C57.8617 52.3579 55.5821 50.581 55.5821 48.0998V38.923C55.5821 35.838 56.4523 32.6745 58.7026 30.658Z" fill="white"/>
</svg>
